<svg width="26" height="26" viewBox="0 0 26 26" fill="none" xmlns="http://www.w3.org/2000/svg">
<path d="M22.7922 10.4921H21.9531V10.4489H12.5781V14.6156H18.4651C17.6063 17.0411 15.2984 18.7823 12.5781 18.7823C9.12657 18.7823 6.32813 15.9838 6.32813 12.5323C6.32813 9.08069 9.12657 6.28225 12.5781 6.28225C14.1714 6.28225 15.6208 6.88329 16.7245 7.86506L19.6708 4.91871C17.8104 3.18486 15.3219 2.11559 12.5781 2.11559C6.82552 2.11559 2.16146 6.77965 2.16146 12.5323C2.16146 18.2849 6.82552 22.9489 12.5781 22.9489C18.3307 22.9489 22.9948 18.2849 22.9948 12.5323C22.9948 11.8338 22.9229 11.152 22.7922 10.4921Z" fill="#FFC107"/>
<path d="M3.3625 7.68381L6.7849 10.1937C7.71094 7.901 9.95365 6.28225 12.5781 6.28225C14.1714 6.28225 15.6208 6.88329 16.7245 7.86506L19.6708 4.91871C17.8104 3.18486 15.3219 2.11559 12.5781 2.11559C8.57709 2.11559 5.10729 4.37444 3.3625 7.68381Z" fill="#FF3D00"/>
<path d="M12.5781 22.9489C15.2687 22.9489 17.7135 21.9192 19.562 20.2448L16.338 17.5166C15.2571 18.3387 13.9362 18.7833 12.5781 18.7823C9.86875 18.7823 7.56823 17.0547 6.70156 14.6437L3.30469 17.2609C5.02865 20.6343 8.52969 22.9489 12.5781 22.9489Z" fill="#4CAF50"/>
<path d="M22.7922 10.4922H21.9531V10.4489H12.5781V14.6156H18.4651C18.0543 15.77 17.3142 16.7787 16.3365 17.5172L16.338 17.5161L19.562 20.2442C19.3339 20.4515 22.9948 17.7406 22.9948 12.5323C22.9948 11.8338 22.9229 11.1521 22.7922 10.4922Z" fill="#1976D2"/>
</svg>
